<?xml version="1.0" encoding="utf-8"?>
<!-- Generator: Adobe Illustrator 26.2.1, SVG Export Plug-In . SVG Version: 6.00 Build 0)  -->
<svg version="1.1" id="Layer_1" xmlns="http://www.w3.org/2000/svg" xmlns:xlink="http://www.w3.org/1999/xlink" x="0px" y="0px"
	 viewBox="0 0 40 40" style="enable-background:new 0 0 40 40;" xml:space="preserve">
<style type="text/css">
	.st0{fill:#7DB45A;}
	.st1{fill:#4B8255;}
	.st2{fill:#003C7D;}
</style>
<g id="logogram">
	<polygon class="st0" points="31,27.6 23.37,27.6 27.76,22.13 35.38,22.13 37.5,19.49 23.55,19.49 13.37,32.18 27.32,32.18 	"/>
	<polygon class="st1" points="35.61,17.13 27.99,17.13 23.58,11.64 31.2,11.64 28.14,7.82 14.18,7.82 23.55,19.49 37.5,19.49 	"/>
	<path class="st2" d="M10.3,9.07L2.97,18.2c-0.63,0.79-0.63,1.93,0,2.71l0,0c0.52,0.65,1.48,0.65,2.01,0l6.76-8.43
		c0.52-0.65,1.48-0.65,2.01,0l0,0c0.6,0.75,0.6,1.85,0,2.6l-6.63,8.27c-0.63,0.79-0.63,1.93,0,2.71l0,0c0.52,0.65,1.48,0.65,2.01,0
		l6.76-8.43c0.52-0.65,1.48-0.65,2.01,0l0,0c0.6,0.75,0.6,1.85,0,2.6l-6.63,8.27c-0.63,0.79-0.63,1.93,0,2.71l0,0
		c0.52,0.65,1.48,0.65,2.01,0l7.32-9.13c1.21-1.51,1.21-3.72,0-5.23l-6.27-7.81C13.27,7.76,11.34,7.76,10.3,9.07z"/>
</g>
</svg>
